<mxfile host="Electron" modified="2024-01-23T21:02:39.093Z" agent="Mozilla/5.0 (X11; Linux x86_64) AppleWebKit/537.36 (KHTML, like Gecko) draw.io/22.1.21 Chrome/120.0.6099.109 Electron/28.1.0 Safari/537.36" etag="rVL74JRsFoV-GiONO55P" version="22.1.21" type="device">
  <diagram name="Page-1" id="5f0bae14-7c28-e335-631c-24af17079c00">
    <mxGraphModel dx="1164" dy="702" grid="1" gridSize="10" guides="1" tooltips="1" connect="1" arrows="1" fold="1" page="1" pageScale="1" pageWidth="1100" pageHeight="850" background="none" math="0" shadow="0">
      <root>
        <mxCell id="0" />
        <mxCell id="1" parent="0" />
        <mxCell id="YC8cqBGVu2JB_xlZtwdL-1" value="DUT_arbiter_round_robin" style="rounded=0;whiteSpace=wrap;html=1;fontStyle=1;fontSize=16;labelPosition=center;verticalLabelPosition=top;align=center;verticalAlign=bottom;" vertex="1" parent="1">
          <mxGeometry x="200" y="60" width="721" height="480" as="geometry" />
        </mxCell>
        <mxCell id="zzoACA5-Ss6NIEGgx-XW-1" value="u_fifo_sync_A" style="swimlane;" parent="1" vertex="1">
          <mxGeometry x="240" y="100" width="200" height="60" as="geometry" />
        </mxCell>
        <mxCell id="zzoACA5-Ss6NIEGgx-XW-2" value="u_fifo_sync_B" style="swimlane;" parent="1" vertex="1">
          <mxGeometry x="240" y="216" width="200" height="60" as="geometry" />
        </mxCell>
        <mxCell id="zzoACA5-Ss6NIEGgx-XW-3" value="u_fifo_sync_C" style="swimlane;" parent="1" vertex="1">
          <mxGeometry x="241" y="333" width="200" height="60" as="geometry" />
        </mxCell>
        <mxCell id="zzoACA5-Ss6NIEGgx-XW-4" value="u_fifo_sync_D" style="swimlane;" parent="1" vertex="1">
          <mxGeometry x="241" y="451" width="200" height="60" as="geometry" />
        </mxCell>
        <mxCell id="zzoACA5-Ss6NIEGgx-XW-5" value="weighted_round_robin_inst" style="ellipse;whiteSpace=wrap;html=1;align=center;newEdgeStyle={&quot;edgeStyle&quot;:&quot;entityRelationEdgeStyle&quot;,&quot;startArrow&quot;:&quot;none&quot;,&quot;endArrow&quot;:&quot;none&quot;,&quot;segment&quot;:10,&quot;curved&quot;:1,&quot;sourcePerimeterSpacing&quot;:0,&quot;targetPerimeterSpacing&quot;:0};treeFolding=1;treeMoving=1;" parent="1" vertex="1">
          <mxGeometry x="630" y="340" width="220" height="70" as="geometry" />
        </mxCell>
        <mxCell id="zzoACA5-Ss6NIEGgx-XW-6" value="PWM" style="html=1;whiteSpace=wrap;aspect=fixed;shape=isoRectangle;" parent="1" vertex="1">
          <mxGeometry x="682" y="445" width="100" height="60" as="geometry" />
        </mxCell>
        <mxCell id="zzoACA5-Ss6NIEGgx-XW-7" value="u_fifo_sync_E" style="swimlane;" parent="1" vertex="1">
          <mxGeometry x="640" y="207" width="200" height="60" as="geometry" />
        </mxCell>
        <mxCell id="zzoACA5-Ss6NIEGgx-XW-8" value="" style="shape=trapezoid;perimeter=trapezoidPerimeter;whiteSpace=wrap;html=1;fixedSize=1;rotation=90;" parent="1" vertex="1">
          <mxGeometry x="490" y="200" width="120" height="60" as="geometry" />
        </mxCell>
        <mxCell id="zzoACA5-Ss6NIEGgx-XW-10" value="" style="endArrow=classic;html=1;rounded=0;entryX=0.468;entryY=1.014;entryDx=0;entryDy=0;entryPerimeter=0;exitX=0.5;exitY=0.05;exitDx=0;exitDy=0;exitPerimeter=0;" parent="1" source="zzoACA5-Ss6NIEGgx-XW-6" target="zzoACA5-Ss6NIEGgx-XW-5" edge="1">
          <mxGeometry width="50" height="50" relative="1" as="geometry">
            <mxPoint x="660" y="480" as="sourcePoint" />
            <mxPoint x="710" y="430" as="targetPoint" />
          </mxGeometry>
        </mxCell>
        <mxCell id="zzoACA5-Ss6NIEGgx-XW-11" value="" style="endArrow=classic;html=1;rounded=0;entryX=1;entryY=0.5;entryDx=0;entryDy=0;" parent="1" target="zzoACA5-Ss6NIEGgx-XW-8" edge="1">
          <mxGeometry width="50" height="50" relative="1" as="geometry">
            <mxPoint x="550" y="380" as="sourcePoint" />
            <mxPoint x="560" y="330" as="targetPoint" />
          </mxGeometry>
        </mxCell>
        <mxCell id="zzoACA5-Ss6NIEGgx-XW-12" value="" style="endArrow=none;html=1;rounded=0;" parent="1" target="zzoACA5-Ss6NIEGgx-XW-5" edge="1">
          <mxGeometry width="50" height="50" relative="1" as="geometry">
            <mxPoint x="550" y="380" as="sourcePoint" />
            <mxPoint x="570" y="440" as="targetPoint" />
          </mxGeometry>
        </mxCell>
        <mxCell id="zzoACA5-Ss6NIEGgx-XW-13" value="" style="endArrow=classic;html=1;rounded=0;entryX=0.01;entryY=0.383;entryDx=0;entryDy=0;entryPerimeter=0;" parent="1" target="zzoACA5-Ss6NIEGgx-XW-7" edge="1">
          <mxGeometry width="50" height="50" relative="1" as="geometry">
            <mxPoint x="580" y="229" as="sourcePoint" />
            <mxPoint x="640" y="234" as="targetPoint" />
          </mxGeometry>
        </mxCell>
        <mxCell id="zzoACA5-Ss6NIEGgx-XW-14" value="" style="edgeStyle=elbowEdgeStyle;elbow=horizontal;endArrow=classic;html=1;curved=0;rounded=0;endSize=8;startSize=8;entryX=0.444;entryY=0.438;entryDx=0;entryDy=0;entryPerimeter=0;" parent="1" target="YC8cqBGVu2JB_xlZtwdL-1" edge="1">
          <mxGeometry width="50" height="50" relative="1" as="geometry">
            <mxPoint x="441" y="485" as="sourcePoint" />
            <mxPoint x="521" y="405" as="targetPoint" />
            <Array as="points">
              <mxPoint x="500" y="380" />
            </Array>
          </mxGeometry>
        </mxCell>
        <mxCell id="zzoACA5-Ss6NIEGgx-XW-15" value="" style="edgeStyle=elbowEdgeStyle;elbow=horizontal;endArrow=classic;html=1;curved=0;rounded=0;endSize=8;startSize=8;entryX=0.75;entryY=1;entryDx=0;entryDy=0;exitX=1;exitY=0.5;exitDx=0;exitDy=0;" parent="1" edge="1" source="zzoACA5-Ss6NIEGgx-XW-3">
          <mxGeometry width="50" height="50" relative="1" as="geometry">
            <mxPoint x="440" y="280" as="sourcePoint" />
            <mxPoint x="520" y="240" as="targetPoint" />
          </mxGeometry>
        </mxCell>
        <mxCell id="zzoACA5-Ss6NIEGgx-XW-16" value="" style="edgeStyle=elbowEdgeStyle;elbow=horizontal;endArrow=classic;html=1;curved=0;rounded=0;endSize=8;startSize=8;entryX=0.358;entryY=0.967;entryDx=0;entryDy=0;entryPerimeter=0;exitX=1;exitY=0.5;exitDx=0;exitDy=0;" parent="1" target="zzoACA5-Ss6NIEGgx-XW-8" edge="1" source="zzoACA5-Ss6NIEGgx-XW-2">
          <mxGeometry width="50" height="50" relative="1" as="geometry">
            <mxPoint x="440" y="210" as="sourcePoint" />
            <mxPoint x="490" y="160" as="targetPoint" />
            <Array as="points">
              <mxPoint x="470" y="230" />
            </Array>
          </mxGeometry>
        </mxCell>
        <mxCell id="zzoACA5-Ss6NIEGgx-XW-17" value="" style="edgeStyle=elbowEdgeStyle;elbow=horizontal;endArrow=classic;html=1;curved=0;rounded=0;endSize=8;startSize=8;entryX=0.133;entryY=1;entryDx=0;entryDy=0;entryPerimeter=0;" parent="1" target="zzoACA5-Ss6NIEGgx-XW-8" edge="1">
          <mxGeometry width="50" height="50" relative="1" as="geometry">
            <mxPoint x="440" y="130" as="sourcePoint" />
            <mxPoint x="490" y="80" as="targetPoint" />
          </mxGeometry>
        </mxCell>
        <mxCell id="zzoACA5-Ss6NIEGgx-XW-18" value="" style="endArrow=classic;html=1;rounded=0;entryX=0.01;entryY=0.383;entryDx=0;entryDy=0;entryPerimeter=0;" parent="1" edge="1">
          <mxGeometry width="50" height="50" relative="1" as="geometry">
            <mxPoint x="838" y="239" as="sourcePoint" />
            <mxPoint x="900" y="240" as="targetPoint" />
          </mxGeometry>
        </mxCell>
        <mxCell id="YC8cqBGVu2JB_xlZtwdL-7" value="ArbiterMonitor" style="rounded=1;whiteSpace=wrap;html=1;" vertex="1" parent="1">
          <mxGeometry x="940" y="345" width="120" height="60" as="geometry" />
        </mxCell>
        <mxCell id="YC8cqBGVu2JB_xlZtwdL-8" value="PressureAgent" style="rounded=1;whiteSpace=wrap;html=1;labelPosition=center;verticalLabelPosition=top;align=center;verticalAlign=bottom;" vertex="1" parent="1">
          <mxGeometry x="940" y="207" width="120" height="60" as="geometry" />
        </mxCell>
        <mxCell id="YC8cqBGVu2JB_xlZtwdL-62" value="" style="group" vertex="1" connectable="0" parent="1">
          <mxGeometry x="660" y="600" width="130" height="80" as="geometry" />
        </mxCell>
        <mxCell id="YC8cqBGVu2JB_xlZtwdL-63" value="PWMAgent" style="rounded=1;whiteSpace=wrap;html=1;labelPosition=center;verticalLabelPosition=top;align=center;verticalAlign=bottom;fillColor=#d5e8d4;strokeColor=#82b366;" vertex="1" parent="YC8cqBGVu2JB_xlZtwdL-62">
          <mxGeometry width="130" height="80" as="geometry" />
        </mxCell>
        <mxCell id="YC8cqBGVu2JB_xlZtwdL-64" value="Driver" style="rounded=0;whiteSpace=wrap;html=1;" vertex="1" parent="YC8cqBGVu2JB_xlZtwdL-62">
          <mxGeometry x="70" y="5" width="50" height="30" as="geometry" />
        </mxCell>
        <mxCell id="YC8cqBGVu2JB_xlZtwdL-65" value="Monitor" style="rounded=0;whiteSpace=wrap;html=1;" vertex="1" parent="YC8cqBGVu2JB_xlZtwdL-62">
          <mxGeometry x="70" y="40" width="50" height="30" as="geometry" />
        </mxCell>
        <mxCell id="YC8cqBGVu2JB_xlZtwdL-66" value="&lt;font style=&quot;font-size: 9px;&quot;&gt;Sequencer&lt;/font&gt;" style="rounded=0;whiteSpace=wrap;html=1;" vertex="1" parent="YC8cqBGVu2JB_xlZtwdL-62">
          <mxGeometry x="10" y="5" width="50" height="30" as="geometry" />
        </mxCell>
        <mxCell id="YC8cqBGVu2JB_xlZtwdL-67" value="&lt;font style=&quot;font-size: 10px;&quot;&gt;Coverage&lt;/font&gt;" style="rounded=0;whiteSpace=wrap;html=1;" vertex="1" parent="YC8cqBGVu2JB_xlZtwdL-62">
          <mxGeometry x="10" y="40" width="50" height="30" as="geometry" />
        </mxCell>
        <mxCell id="YC8cqBGVu2JB_xlZtwdL-68" value="" style="endArrow=classic;html=1;rounded=0;entryX=0.18;entryY=0.677;entryDx=0;entryDy=0;entryPerimeter=0;" edge="1" parent="1" target="zzoACA5-Ss6NIEGgx-XW-6">
          <mxGeometry width="50" height="50" relative="1" as="geometry">
            <mxPoint x="700" y="571.599999999999" as="sourcePoint" />
            <mxPoint x="620" y="571.599999999999" as="targetPoint" />
          </mxGeometry>
        </mxCell>
        <mxCell id="YC8cqBGVu2JB_xlZtwdL-69" value="" style="endArrow=classic;html=1;rounded=0;exitX=0.763;exitY=0.917;exitDx=0;exitDy=0;exitPerimeter=0;" edge="1" parent="1" source="YC8cqBGVu2JB_xlZtwdL-1">
          <mxGeometry width="50" height="50" relative="1" as="geometry">
            <mxPoint x="900" y="608.1999999999994" as="sourcePoint" />
            <mxPoint x="750" y="570" as="targetPoint" />
          </mxGeometry>
        </mxCell>
        <mxCell id="YC8cqBGVu2JB_xlZtwdL-13" value="" style="group" vertex="1" connectable="0" parent="1">
          <mxGeometry x="30" y="440" width="130" height="80" as="geometry" />
        </mxCell>
        <mxCell id="YC8cqBGVu2JB_xlZtwdL-5" value="QueueAgent" style="rounded=1;whiteSpace=wrap;html=1;labelPosition=center;verticalLabelPosition=top;align=center;verticalAlign=bottom;fillColor=#d5e8d4;strokeColor=#82b366;" vertex="1" parent="YC8cqBGVu2JB_xlZtwdL-13">
          <mxGeometry width="130" height="80" as="geometry" />
        </mxCell>
        <mxCell id="YC8cqBGVu2JB_xlZtwdL-9" value="Driver" style="rounded=0;whiteSpace=wrap;html=1;" vertex="1" parent="YC8cqBGVu2JB_xlZtwdL-13">
          <mxGeometry x="70" y="5" width="50" height="30" as="geometry" />
        </mxCell>
        <mxCell id="YC8cqBGVu2JB_xlZtwdL-10" value="Monitor" style="rounded=0;whiteSpace=wrap;html=1;" vertex="1" parent="YC8cqBGVu2JB_xlZtwdL-13">
          <mxGeometry x="70" y="40" width="50" height="30" as="geometry" />
        </mxCell>
        <mxCell id="YC8cqBGVu2JB_xlZtwdL-11" value="&lt;font style=&quot;font-size: 9px;&quot;&gt;Sequencer&lt;/font&gt;" style="rounded=0;whiteSpace=wrap;html=1;" vertex="1" parent="YC8cqBGVu2JB_xlZtwdL-13">
          <mxGeometry x="10" y="5" width="50" height="30" as="geometry" />
        </mxCell>
        <mxCell id="YC8cqBGVu2JB_xlZtwdL-12" value="&lt;font style=&quot;font-size: 10px;&quot;&gt;Coverage&lt;/font&gt;" style="rounded=0;whiteSpace=wrap;html=1;" vertex="1" parent="YC8cqBGVu2JB_xlZtwdL-13">
          <mxGeometry x="10" y="40" width="50" height="30" as="geometry" />
        </mxCell>
        <mxCell id="YC8cqBGVu2JB_xlZtwdL-14" value="" style="endArrow=classic;html=1;rounded=0;" edge="1" parent="1">
          <mxGeometry width="50" height="50" relative="1" as="geometry">
            <mxPoint x="160" y="461" as="sourcePoint" />
            <mxPoint x="240" y="461" as="targetPoint" />
          </mxGeometry>
        </mxCell>
        <mxCell id="YC8cqBGVu2JB_xlZtwdL-15" value="" style="endArrow=classic;html=1;rounded=0;entryX=0.992;entryY=0.648;entryDx=0;entryDy=0;entryPerimeter=0;" edge="1" parent="1">
          <mxGeometry width="50" height="50" relative="1" as="geometry">
            <mxPoint x="240" y="498" as="sourcePoint" />
            <mxPoint x="160" y="498" as="targetPoint" />
          </mxGeometry>
        </mxCell>
        <mxCell id="YC8cqBGVu2JB_xlZtwdL-29" value="" style="group" vertex="1" connectable="0" parent="1">
          <mxGeometry x="30" y="326" width="130" height="80" as="geometry" />
        </mxCell>
        <mxCell id="YC8cqBGVu2JB_xlZtwdL-30" value="QueueAgent" style="rounded=1;whiteSpace=wrap;html=1;labelPosition=center;verticalLabelPosition=top;align=center;verticalAlign=bottom;fillColor=#d5e8d4;strokeColor=#82b366;" vertex="1" parent="YC8cqBGVu2JB_xlZtwdL-29">
          <mxGeometry width="130" height="80" as="geometry" />
        </mxCell>
        <mxCell id="YC8cqBGVu2JB_xlZtwdL-31" value="Driver" style="rounded=0;whiteSpace=wrap;html=1;" vertex="1" parent="YC8cqBGVu2JB_xlZtwdL-29">
          <mxGeometry x="70" y="5" width="50" height="30" as="geometry" />
        </mxCell>
        <mxCell id="YC8cqBGVu2JB_xlZtwdL-32" value="Monitor" style="rounded=0;whiteSpace=wrap;html=1;" vertex="1" parent="YC8cqBGVu2JB_xlZtwdL-29">
          <mxGeometry x="70" y="40" width="50" height="30" as="geometry" />
        </mxCell>
        <mxCell id="YC8cqBGVu2JB_xlZtwdL-33" value="&lt;font style=&quot;font-size: 9px;&quot;&gt;Sequencer&lt;/font&gt;" style="rounded=0;whiteSpace=wrap;html=1;" vertex="1" parent="YC8cqBGVu2JB_xlZtwdL-29">
          <mxGeometry x="10" y="5" width="50" height="30" as="geometry" />
        </mxCell>
        <mxCell id="YC8cqBGVu2JB_xlZtwdL-34" value="&lt;font style=&quot;font-size: 10px;&quot;&gt;Coverage&lt;/font&gt;" style="rounded=0;whiteSpace=wrap;html=1;" vertex="1" parent="YC8cqBGVu2JB_xlZtwdL-29">
          <mxGeometry x="10" y="40" width="50" height="30" as="geometry" />
        </mxCell>
        <mxCell id="YC8cqBGVu2JB_xlZtwdL-35" value="" style="endArrow=classic;html=1;rounded=0;" edge="1" parent="1">
          <mxGeometry width="50" height="50" relative="1" as="geometry">
            <mxPoint x="160" y="347" as="sourcePoint" />
            <mxPoint x="240" y="347" as="targetPoint" />
          </mxGeometry>
        </mxCell>
        <mxCell id="YC8cqBGVu2JB_xlZtwdL-36" value="" style="endArrow=classic;html=1;rounded=0;entryX=0.992;entryY=0.648;entryDx=0;entryDy=0;entryPerimeter=0;" edge="1" parent="1">
          <mxGeometry width="50" height="50" relative="1" as="geometry">
            <mxPoint x="240" y="384" as="sourcePoint" />
            <mxPoint x="160" y="384" as="targetPoint" />
          </mxGeometry>
        </mxCell>
        <mxCell id="YC8cqBGVu2JB_xlZtwdL-44" value="" style="group" vertex="1" connectable="0" parent="1">
          <mxGeometry x="30" y="210" width="130" height="80" as="geometry" />
        </mxCell>
        <mxCell id="YC8cqBGVu2JB_xlZtwdL-45" value="QueueAgent" style="rounded=1;whiteSpace=wrap;html=1;labelPosition=center;verticalLabelPosition=top;align=center;verticalAlign=bottom;fillColor=#d5e8d4;strokeColor=#82b366;" vertex="1" parent="YC8cqBGVu2JB_xlZtwdL-44">
          <mxGeometry width="130" height="80" as="geometry" />
        </mxCell>
        <mxCell id="YC8cqBGVu2JB_xlZtwdL-46" value="Driver" style="rounded=0;whiteSpace=wrap;html=1;" vertex="1" parent="YC8cqBGVu2JB_xlZtwdL-44">
          <mxGeometry x="70" y="5" width="50" height="30" as="geometry" />
        </mxCell>
        <mxCell id="YC8cqBGVu2JB_xlZtwdL-47" value="Monitor" style="rounded=0;whiteSpace=wrap;html=1;" vertex="1" parent="YC8cqBGVu2JB_xlZtwdL-44">
          <mxGeometry x="70" y="40" width="50" height="30" as="geometry" />
        </mxCell>
        <mxCell id="YC8cqBGVu2JB_xlZtwdL-48" value="&lt;font style=&quot;font-size: 9px;&quot;&gt;Sequencer&lt;/font&gt;" style="rounded=0;whiteSpace=wrap;html=1;" vertex="1" parent="YC8cqBGVu2JB_xlZtwdL-44">
          <mxGeometry x="10" y="5" width="50" height="30" as="geometry" />
        </mxCell>
        <mxCell id="YC8cqBGVu2JB_xlZtwdL-49" value="&lt;font style=&quot;font-size: 10px;&quot;&gt;Coverage&lt;/font&gt;" style="rounded=0;whiteSpace=wrap;html=1;" vertex="1" parent="YC8cqBGVu2JB_xlZtwdL-44">
          <mxGeometry x="10" y="40" width="50" height="30" as="geometry" />
        </mxCell>
        <mxCell id="YC8cqBGVu2JB_xlZtwdL-50" value="" style="endArrow=classic;html=1;rounded=0;" edge="1" parent="1">
          <mxGeometry width="50" height="50" relative="1" as="geometry">
            <mxPoint x="160" y="231" as="sourcePoint" />
            <mxPoint x="240" y="231" as="targetPoint" />
          </mxGeometry>
        </mxCell>
        <mxCell id="YC8cqBGVu2JB_xlZtwdL-51" value="" style="endArrow=classic;html=1;rounded=0;entryX=0.992;entryY=0.648;entryDx=0;entryDy=0;entryPerimeter=0;" edge="1" parent="1">
          <mxGeometry width="50" height="50" relative="1" as="geometry">
            <mxPoint x="240" y="268" as="sourcePoint" />
            <mxPoint x="160" y="268" as="targetPoint" />
          </mxGeometry>
        </mxCell>
        <mxCell id="YC8cqBGVu2JB_xlZtwdL-53" value="" style="group" vertex="1" connectable="0" parent="1">
          <mxGeometry x="30" y="90" width="130" height="80" as="geometry" />
        </mxCell>
        <mxCell id="YC8cqBGVu2JB_xlZtwdL-54" value="QueueAgent" style="rounded=1;whiteSpace=wrap;html=1;labelPosition=center;verticalLabelPosition=top;align=center;verticalAlign=bottom;fillColor=#d5e8d4;strokeColor=#82b366;" vertex="1" parent="YC8cqBGVu2JB_xlZtwdL-53">
          <mxGeometry width="130" height="80" as="geometry" />
        </mxCell>
        <mxCell id="YC8cqBGVu2JB_xlZtwdL-55" value="Driver" style="rounded=0;whiteSpace=wrap;html=1;" vertex="1" parent="YC8cqBGVu2JB_xlZtwdL-53">
          <mxGeometry x="70" y="5" width="50" height="30" as="geometry" />
        </mxCell>
        <mxCell id="YC8cqBGVu2JB_xlZtwdL-56" value="Monitor" style="rounded=0;whiteSpace=wrap;html=1;" vertex="1" parent="YC8cqBGVu2JB_xlZtwdL-53">
          <mxGeometry x="70" y="40" width="50" height="30" as="geometry" />
        </mxCell>
        <mxCell id="YC8cqBGVu2JB_xlZtwdL-57" value="&lt;font style=&quot;font-size: 9px;&quot;&gt;Sequencer&lt;/font&gt;" style="rounded=0;whiteSpace=wrap;html=1;" vertex="1" parent="YC8cqBGVu2JB_xlZtwdL-53">
          <mxGeometry x="10" y="5" width="50" height="30" as="geometry" />
        </mxCell>
        <mxCell id="YC8cqBGVu2JB_xlZtwdL-58" value="&lt;font style=&quot;font-size: 10px;&quot;&gt;Coverage&lt;/font&gt;" style="rounded=0;whiteSpace=wrap;html=1;" vertex="1" parent="YC8cqBGVu2JB_xlZtwdL-53">
          <mxGeometry x="10" y="40" width="50" height="30" as="geometry" />
        </mxCell>
        <mxCell id="YC8cqBGVu2JB_xlZtwdL-59" value="" style="endArrow=classic;html=1;rounded=0;" edge="1" parent="1">
          <mxGeometry width="50" height="50" relative="1" as="geometry">
            <mxPoint x="160" y="111" as="sourcePoint" />
            <mxPoint x="240" y="111" as="targetPoint" />
          </mxGeometry>
        </mxCell>
        <mxCell id="YC8cqBGVu2JB_xlZtwdL-60" value="" style="endArrow=classic;html=1;rounded=0;entryX=0.992;entryY=0.648;entryDx=0;entryDy=0;entryPerimeter=0;" edge="1" parent="1">
          <mxGeometry width="50" height="50" relative="1" as="geometry">
            <mxPoint x="240" y="148" as="sourcePoint" />
            <mxPoint x="160" y="148" as="targetPoint" />
          </mxGeometry>
        </mxCell>
      </root>
    </mxGraphModel>
  </diagram>
</mxfile>
